#define layout_im_width 13
#define layout_im_height 11
static unsigned char layout_im_bits[] = {
   0xff, 0x1f, 0x11, 0x11, 0x11, 0x11, 0x11, 0x11, 0x11, 0x11, 0xf1, 0x1f,
   0x11, 0x11, 0x11, 0x11, 0x11, 0x11, 0x11, 0x11, 0xff, 0x1f };
