#define pc_width 9
#define pc_height 9
static unsigned char pc_bits[] = {
   0x07, 0x00, 0x05, 0x00, 0xf5, 0x01, 0x15, 0x01, 0x15, 0x01, 0x15, 0x01,
   0xf5, 0x01, 0x45, 0x00, 0xf7, 0x01 };
