#define ac2_width 9
#define ac2_height 9
static unsigned char ac2_bits[] = {
   0x40, 0x00, 0x20, 0x00, 0x1c, 0x01, 0xa4, 0x00, 0x44, 0x00, 0x46, 0x00,
   0x7a, 0x00, 0x0e, 0x00, 0x01, 0x00 };
