#define arch2_width 9
#define arch2_height 9
static unsigned char arch2_bits[] = {
   0x10, 0x00, 0x10, 0x00, 0x38, 0x00, 0x7c, 0x00, 0x7c, 0x00, 0xee, 0x00,
   0xc6, 0x00, 0xc7, 0x01, 0x01, 0x01 };
