#define arrow_up_width 9
#define arrow_up_height 9
static unsigned char arrow_up_bits[] = {
   0x10, 0x00, 0x38, 0x00, 0x54, 0x00, 0x92, 0x00, 0x10, 0x00, 0x10, 0x00,
   0x10, 0x00, 0x10, 0x00, 0x10, 0x00 };
