#define battery_vert2_width 9
#define battery_vert2_height 9
static unsigned char battery_vert2_bits[] = {
   0x10, 0x00, 0x7c, 0x00, 0x44, 0x00, 0x44, 0x00, 0x44, 0x00, 0x54, 0x00,
   0x54, 0x00, 0x44, 0x00, 0x7c, 0x00 };
