#define battery_horz1_width 9
#define battery_horz1_height 9
static unsigned char battery_horz1_bits[] = {
   0x00, 0x00, 0x00, 0x00, 0xff, 0x00, 0x81, 0x00, 0x81, 0x01, 0x81, 0x00,
   0xff, 0x00, 0x00, 0x00, 0x00, 0x00 };
