#define bell2_width 9
#define bell2_height 9
static unsigned char bell2_bits[] = {
   0x10, 0x00, 0x28, 0x00, 0x44, 0x00, 0x44, 0x00, 0x82, 0x00, 0x82, 0x00,
   0x01, 0x01, 0xff, 0x01, 0x38, 0x00 };
