#define box_minus_width 9
#define box_minus_height 9
static unsigned char box_minus_bits[] = {
   0xff, 0x01, 0x01, 0x01, 0x01, 0x01, 0x01, 0x01, 0x7d, 0x01, 0x01, 0x01,
   0x01, 0x01, 0x01, 0x01, 0xff, 0x01 };
