#define cert_width 9
#define cert_height 9
static unsigned char cert_bits[] = {
   0xff, 0x01, 0x7d, 0x01, 0x7d, 0x01, 0x7d, 0x01, 0x55, 0x01, 0x01, 0x01,
   0x61, 0x01, 0x01, 0x01, 0xff, 0x01 };
