#define flask2_width 9
#define flask2_height 9
static unsigned char flask2_bits[] = {
   0x00, 0x00, 0x38, 0x00, 0x28, 0x00, 0x28, 0x00, 0x28, 0x00, 0x44, 0x00,
   0xba, 0x00, 0x01, 0x01, 0xff, 0x01 };
