#define exclamation_width 9
#define exclamation_height 9
static unsigned char exclamation_bits[] = {
   0xff, 0x01, 0x01, 0x01, 0x11, 0x01, 0x11, 0x01, 0x11, 0x01, 0x01, 0x01,
   0x11, 0x01, 0x01, 0x01, 0xff, 0x01 };
