#define flask1_width 9
#define flask1_height 9
static unsigned char flask1_bits[] = {
   0x00, 0x00, 0x38, 0x00, 0x28, 0x00, 0x28, 0x00, 0x28, 0x00, 0x44, 0x00,
   0x82, 0x00, 0x01, 0x01, 0xff, 0x01 };
