#define jar1_width 9
#define jar1_height 9
static unsigned char jar1_bits[] = {
   0x7c, 0x00, 0x7c, 0x00, 0x82, 0x00, 0x01, 0x01, 0x01, 0x01, 0x01, 0x01,
   0x01, 0x01, 0x01, 0x01, 0xff, 0x01 };
