#define jar3_width 9
#define jar3_height 9
static unsigned char jar3_bits[] = {
   0x7c, 0x00, 0x7c, 0x00, 0x82, 0x00, 0x39, 0x01, 0x39, 0x01, 0x7d, 0x01,
   0x7d, 0x01, 0x01, 0x01, 0xff, 0x01 };
