#define layout_width 13
#define layout_height 11
static unsigned char layout_bits[] = {
 0xFF, 0x1F, 0x01, 0x10, 0x01, 0x10, 0x01, 0x10, 0x01, 0x10, 0x01, 0x10,
 0xFF, 0x1F, 0x11, 0x11, 0x11, 0x11, 0x11, 0x11, 0xFF, 0x1F };
