#define layout_twopane_width 13
#define layout_twopane_height 11
static unsigned char layout_twopane_bits[] = {
   0xff, 0xff, 0x11, 0x11, 0xff, 0xff, 0x01, 0x10, 0x01, 0x10, 0x01, 0x10,
   0x01, 0x10, 0x01, 0x10, 0x01, 0x10, 0x01, 0x10, 0xFF, 0x1F };
