#define layout_twopane_width 13
#define layout_twopane_height 11
static unsigned char layout_twopane_bits[] = {
   0xff, 0x1f, 0x81, 0x12, 0x81, 0x19, 0x81, 0x14, 0x81, 0x12, 0x81, 0x19,
   0x81, 0x14, 0x81, 0x12, 0x81, 0x19, 0x81, 0x14, 0xff, 0x1f };
