#define layout_gimp_width 13
#define layout_gimp_height 11
static unsigned char layout_gimp_bits[] = {
   0xff, 0x1f, 0x09, 0x12, 0x09, 0x12, 0x09, 0x12, 0x09, 0x12, 0x09, 0x12,
   0x09, 0x12, 0x09, 0x12, 0x09, 0x12, 0x09, 0x12, 0xff, 0x1f };
