#define light2_width 9
#define light2_height 9
static unsigned char light2_bits[] = {
   0x39, 0x01, 0x44, 0x00, 0x82, 0x00, 0x82, 0x00, 0x44, 0x00, 0x28, 0x00,
   0x39, 0x01, 0x38, 0x00, 0x10, 0x00 };
