#define phone_width 9
#define phone_height 9
static unsigned char phone_bits[] = {
   0x78, 0x00, 0x44, 0x00, 0x74, 0x00, 0x14, 0x00, 0x14, 0x00, 0x14, 0x00,
   0x74, 0x00, 0x44, 0x00, 0x78, 0x00 };
