#define player_repeat1_width 9
#define player_repeat1_height 9
static unsigned char player_repeat1_bits[] = {
   0x38, 0x00, 0x44, 0x00, 0x82, 0x00, 0x82, 0x00, 0x8a, 0x00, 0x5c, 0x00,
   0x38, 0x00, 0x18, 0x00, 0x08, 0x00 };
