#define player_shuffle1_width 9
#define player_shuffle1_height 9
static unsigned char player_shuffle1_bits[] = {
   0x00, 0x00, 0x00, 0x00, 0xe3, 0x01, 0x14, 0x00, 0x48, 0x00, 0xd4, 0x00,
   0xe3, 0x01, 0xc0, 0x00, 0x40, 0x00 };
