#define tag_width 9
#define tag_height 9
static unsigned char tag_bits[] = {
   0xe0, 0x01, 0x10, 0x01, 0x08, 0x01, 0x24, 0x01, 0x82, 0x00, 0x41, 0x00,
   0x22, 0x00, 0x14, 0x00, 0x08, 0x00 };
