#define wand_width 9
#define wand_height 9
static unsigned char wand_bits[] = {
   0x88, 0x00, 0x5c, 0x01, 0xe8, 0x00, 0x74, 0x00, 0x38, 0x00, 0x1c, 0x00,
   0x0e, 0x00, 0x07, 0x00, 0x02, 0x00 };
