#define water_width 9
#define water_height 9
static unsigned char water_bits[] = {
   0x10, 0x00, 0x10, 0x00, 0x28, 0x00, 0x44, 0x00, 0x82, 0x00, 0x82, 0x00,
   0x82, 0x00, 0x44, 0x00, 0x38, 0x00 };
